<mxfile host="app.diagrams.net" modified="2024-06-21T09:08:40.654Z" agent="Mozilla/5.0 (Windows NT 10.0; Win64; x64) AppleWebKit/537.36 (KHTML, like Gecko) Chrome/126.0.0.0 Safari/537.36" etag="RkLlLhI60UCXDMuisuDo" version="24.6.0" type="device">
  <diagram name="Trang-1" id="EyopmbSJvsomWJK2xoOn">
    <mxGraphModel dx="1674" dy="820" grid="1" gridSize="10" guides="1" tooltips="1" connect="1" arrows="1" fold="1" page="1" pageScale="1" pageWidth="827" pageHeight="1169" math="0" shadow="0">
      <root>
        <mxCell id="0" />
        <mxCell id="1" parent="0" />
        <mxCell id="_zV6KzTDaz2BEm2wTDxe-1" value="Presentation package" style="shape=umlFrame;whiteSpace=wrap;html=1;pointerEvents=0;recursiveResize=0;container=1;collapsible=0;width=160;" parent="1" vertex="1">
          <mxGeometry x="40" y="240" width="650" height="480" as="geometry" />
        </mxCell>
        <mxCell id="_zV6KzTDaz2BEm2wTDxe-2" value="Package" style="shape=folder;fontStyle=1;tabWidth=70;tabHeight=20;tabPosition=left;html=1;boundedLbl=1;labelInHeader=1;container=1;collapsible=0;whiteSpace=wrap;" parent="_zV6KzTDaz2BEm2wTDxe-1" vertex="1">
          <mxGeometry x="140" y="40" width="130" height="80" as="geometry" />
        </mxCell>
        <mxCell id="_zV6KzTDaz2BEm2wTDxe-3" value="Routers" style="html=1;strokeColor=none;resizeWidth=1;resizeHeight=1;fillColor=none;part=1;connectable=0;allowArrows=0;deletable=0;whiteSpace=wrap;" parent="_zV6KzTDaz2BEm2wTDxe-2" vertex="1">
          <mxGeometry width="130" height="66" relative="1" as="geometry">
            <mxPoint y="20" as="offset" />
          </mxGeometry>
        </mxCell>
        <mxCell id="_zV6KzTDaz2BEm2wTDxe-4" value="Package" style="shape=folder;fontStyle=1;tabWidth=70;tabHeight=20;tabPosition=left;html=1;boundedLbl=1;labelInHeader=1;container=1;collapsible=0;whiteSpace=wrap;" parent="_zV6KzTDaz2BEm2wTDxe-1" vertex="1">
          <mxGeometry x="420" y="40" width="130" height="80" as="geometry" />
        </mxCell>
        <mxCell id="_zV6KzTDaz2BEm2wTDxe-5" value="Layout" style="html=1;strokeColor=none;resizeWidth=1;resizeHeight=1;fillColor=none;part=1;connectable=0;allowArrows=0;deletable=0;whiteSpace=wrap;" parent="_zV6KzTDaz2BEm2wTDxe-4" vertex="1">
          <mxGeometry width="130" height="66" relative="1" as="geometry">
            <mxPoint y="20" as="offset" />
          </mxGeometry>
        </mxCell>
        <mxCell id="_zV6KzTDaz2BEm2wTDxe-12" value="Package" style="shape=folder;fontStyle=1;tabWidth=70;tabHeight=20;tabPosition=left;html=1;boundedLbl=1;labelInHeader=1;container=1;collapsible=0;whiteSpace=wrap;" parent="_zV6KzTDaz2BEm2wTDxe-1" vertex="1">
          <mxGeometry x="50" y="180" width="130" height="80" as="geometry" />
        </mxCell>
        <mxCell id="_zV6KzTDaz2BEm2wTDxe-13" value="View" style="html=1;strokeColor=none;resizeWidth=1;resizeHeight=1;fillColor=none;part=1;connectable=0;allowArrows=0;deletable=0;whiteSpace=wrap;" parent="_zV6KzTDaz2BEm2wTDxe-12" vertex="1">
          <mxGeometry width="130" height="66" relative="1" as="geometry">
            <mxPoint y="20" as="offset" />
          </mxGeometry>
        </mxCell>
        <mxCell id="_zV6KzTDaz2BEm2wTDxe-10" value="Package" style="shape=folder;fontStyle=1;tabWidth=70;tabHeight=20;tabPosition=left;html=1;boundedLbl=1;labelInHeader=1;container=1;collapsible=0;whiteSpace=wrap;" parent="_zV6KzTDaz2BEm2wTDxe-1" vertex="1">
          <mxGeometry x="280" y="180" width="130" height="80" as="geometry" />
        </mxCell>
        <mxCell id="_zV6KzTDaz2BEm2wTDxe-11" value="Screen" style="html=1;strokeColor=none;resizeWidth=1;resizeHeight=1;fillColor=none;part=1;connectable=0;allowArrows=0;deletable=0;whiteSpace=wrap;" parent="_zV6KzTDaz2BEm2wTDxe-10" vertex="1">
          <mxGeometry width="130" height="66" relative="1" as="geometry">
            <mxPoint y="20" as="offset" />
          </mxGeometry>
        </mxCell>
        <mxCell id="_zV6KzTDaz2BEm2wTDxe-8" value="Package" style="shape=folder;fontStyle=1;tabWidth=70;tabHeight=20;tabPosition=left;html=1;boundedLbl=1;labelInHeader=1;container=1;collapsible=0;whiteSpace=wrap;" parent="_zV6KzTDaz2BEm2wTDxe-1" vertex="1">
          <mxGeometry x="490" y="180" width="130" height="80" as="geometry" />
        </mxCell>
        <mxCell id="_zV6KzTDaz2BEm2wTDxe-9" value="Config" style="html=1;strokeColor=none;resizeWidth=1;resizeHeight=1;fillColor=none;part=1;connectable=0;allowArrows=0;deletable=0;whiteSpace=wrap;" parent="_zV6KzTDaz2BEm2wTDxe-8" vertex="1">
          <mxGeometry width="130" height="66" relative="1" as="geometry">
            <mxPoint y="20" as="offset" />
          </mxGeometry>
        </mxCell>
        <mxCell id="_zV6KzTDaz2BEm2wTDxe-15" value="Package" style="shape=folder;fontStyle=1;tabWidth=70;tabHeight=20;tabPosition=left;html=1;boundedLbl=1;labelInHeader=1;container=1;collapsible=0;whiteSpace=wrap;" parent="_zV6KzTDaz2BEm2wTDxe-1" vertex="1">
          <mxGeometry x="160" y="340" width="130" height="80" as="geometry" />
        </mxCell>
        <mxCell id="_zV6KzTDaz2BEm2wTDxe-16" value="Components" style="html=1;strokeColor=none;resizeWidth=1;resizeHeight=1;fillColor=none;part=1;connectable=0;allowArrows=0;deletable=0;whiteSpace=wrap;" parent="_zV6KzTDaz2BEm2wTDxe-15" vertex="1">
          <mxGeometry width="130" height="66" relative="1" as="geometry">
            <mxPoint y="20" as="offset" />
          </mxGeometry>
        </mxCell>
        <mxCell id="_zV6KzTDaz2BEm2wTDxe-17" value="Package" style="shape=folder;fontStyle=1;tabWidth=70;tabHeight=20;tabPosition=left;html=1;boundedLbl=1;labelInHeader=1;container=1;collapsible=0;whiteSpace=wrap;" parent="_zV6KzTDaz2BEm2wTDxe-1" vertex="1">
          <mxGeometry x="410" y="340" width="130" height="80" as="geometry" />
        </mxCell>
        <mxCell id="_zV6KzTDaz2BEm2wTDxe-18" value="utils" style="html=1;strokeColor=none;resizeWidth=1;resizeHeight=1;fillColor=none;part=1;connectable=0;allowArrows=0;deletable=0;whiteSpace=wrap;" parent="_zV6KzTDaz2BEm2wTDxe-17" vertex="1">
          <mxGeometry width="130" height="66" relative="1" as="geometry">
            <mxPoint y="20" as="offset" />
          </mxGeometry>
        </mxCell>
        <mxCell id="_zV6KzTDaz2BEm2wTDxe-20" value="" style="html=1;verticalAlign=bottom;labelBackgroundColor=none;endArrow=open;endFill=0;dashed=1;rounded=0;exitX=0.5;exitY=1;exitDx=0;exitDy=0;exitPerimeter=0;" parent="_zV6KzTDaz2BEm2wTDxe-1" source="_zV6KzTDaz2BEm2wTDxe-2" target="_zV6KzTDaz2BEm2wTDxe-12" edge="1">
          <mxGeometry width="160" relative="1" as="geometry">
            <mxPoint x="100" y="160" as="sourcePoint" />
            <mxPoint x="260" y="160" as="targetPoint" />
          </mxGeometry>
        </mxCell>
        <mxCell id="_zV6KzTDaz2BEm2wTDxe-21" value="" style="html=1;verticalAlign=bottom;labelBackgroundColor=none;endArrow=open;endFill=0;dashed=1;rounded=0;" parent="_zV6KzTDaz2BEm2wTDxe-1" source="_zV6KzTDaz2BEm2wTDxe-2" target="_zV6KzTDaz2BEm2wTDxe-10" edge="1">
          <mxGeometry width="160" relative="1" as="geometry">
            <mxPoint x="215" y="130" as="sourcePoint" />
            <mxPoint x="161" y="190" as="targetPoint" />
          </mxGeometry>
        </mxCell>
        <mxCell id="_zV6KzTDaz2BEm2wTDxe-22" value="" style="html=1;verticalAlign=bottom;labelBackgroundColor=none;endArrow=open;endFill=0;dashed=1;rounded=0;" parent="_zV6KzTDaz2BEm2wTDxe-1" source="_zV6KzTDaz2BEm2wTDxe-4" target="_zV6KzTDaz2BEm2wTDxe-10" edge="1">
          <mxGeometry width="160" relative="1" as="geometry">
            <mxPoint x="428" y="140" as="sourcePoint" />
            <mxPoint x="374" y="200" as="targetPoint" />
          </mxGeometry>
        </mxCell>
        <mxCell id="_zV6KzTDaz2BEm2wTDxe-23" value="" style="html=1;verticalAlign=bottom;labelBackgroundColor=none;endArrow=open;endFill=0;dashed=1;rounded=0;" parent="_zV6KzTDaz2BEm2wTDxe-1" source="_zV6KzTDaz2BEm2wTDxe-4" target="_zV6KzTDaz2BEm2wTDxe-8" edge="1">
          <mxGeometry width="160" relative="1" as="geometry">
            <mxPoint x="235" y="150" as="sourcePoint" />
            <mxPoint x="181" y="210" as="targetPoint" />
          </mxGeometry>
        </mxCell>
        <mxCell id="_zV6KzTDaz2BEm2wTDxe-24" value="" style="html=1;verticalAlign=bottom;labelBackgroundColor=none;endArrow=open;endFill=0;dashed=1;rounded=0;" parent="_zV6KzTDaz2BEm2wTDxe-1" source="_zV6KzTDaz2BEm2wTDxe-10" target="_zV6KzTDaz2BEm2wTDxe-15" edge="1">
          <mxGeometry width="160" relative="1" as="geometry">
            <mxPoint x="252" y="270" as="sourcePoint" />
            <mxPoint x="198" y="330" as="targetPoint" />
          </mxGeometry>
        </mxCell>
        <mxCell id="_zV6KzTDaz2BEm2wTDxe-25" value="" style="html=1;verticalAlign=bottom;labelBackgroundColor=none;endArrow=open;endFill=0;dashed=1;rounded=0;" parent="_zV6KzTDaz2BEm2wTDxe-1" source="_zV6KzTDaz2BEm2wTDxe-10" target="_zV6KzTDaz2BEm2wTDxe-17" edge="1">
          <mxGeometry width="160" relative="1" as="geometry">
            <mxPoint x="290" y="250" as="sourcePoint" />
            <mxPoint x="236" y="310" as="targetPoint" />
          </mxGeometry>
        </mxCell>
        <mxCell id="_zV6KzTDaz2BEm2wTDxe-26" value="Application pkg Diagram" style="shape=umlFrame;whiteSpace=wrap;html=1;pointerEvents=0;recursiveResize=0;container=1;collapsible=0;width=160;" parent="1" vertex="1">
          <mxGeometry x="100" y="780" width="670" height="450" as="geometry" />
        </mxCell>
        <mxCell id="_zV6KzTDaz2BEm2wTDxe-29" value="Package" style="shape=folder;fontStyle=1;tabWidth=70;tabHeight=20;tabPosition=left;html=1;boundedLbl=1;labelInHeader=1;container=1;collapsible=0;whiteSpace=wrap;" parent="_zV6KzTDaz2BEm2wTDxe-26" vertex="1">
          <mxGeometry x="270" y="30" width="130" height="80" as="geometry" />
        </mxCell>
        <mxCell id="_zV6KzTDaz2BEm2wTDxe-30" value="controller" style="html=1;strokeColor=none;resizeWidth=1;resizeHeight=1;fillColor=none;part=1;connectable=0;allowArrows=0;deletable=0;whiteSpace=wrap;" parent="_zV6KzTDaz2BEm2wTDxe-29" vertex="1">
          <mxGeometry width="130" height="66" relative="1" as="geometry">
            <mxPoint y="20" as="offset" />
          </mxGeometry>
        </mxCell>
        <mxCell id="_zV6KzTDaz2BEm2wTDxe-33" value="Package" style="shape=folder;fontStyle=1;tabWidth=70;tabHeight=20;tabPosition=left;html=1;boundedLbl=1;labelInHeader=1;container=1;collapsible=0;whiteSpace=wrap;" parent="_zV6KzTDaz2BEm2wTDxe-26" vertex="1">
          <mxGeometry x="200" y="160" width="130" height="80" as="geometry" />
        </mxCell>
        <mxCell id="_zV6KzTDaz2BEm2wTDxe-34" value="service" style="html=1;strokeColor=none;resizeWidth=1;resizeHeight=1;fillColor=none;part=1;connectable=0;allowArrows=0;deletable=0;whiteSpace=wrap;" parent="_zV6KzTDaz2BEm2wTDxe-33" vertex="1">
          <mxGeometry width="130" height="66" relative="1" as="geometry">
            <mxPoint y="20" as="offset" />
          </mxGeometry>
        </mxCell>
        <mxCell id="_zV6KzTDaz2BEm2wTDxe-35" value="Package" style="shape=folder;fontStyle=1;tabWidth=70;tabHeight=20;tabPosition=left;html=1;boundedLbl=1;labelInHeader=1;container=1;collapsible=0;whiteSpace=wrap;" parent="_zV6KzTDaz2BEm2wTDxe-26" vertex="1">
          <mxGeometry x="410" y="170" width="130" height="80" as="geometry" />
        </mxCell>
        <mxCell id="_zV6KzTDaz2BEm2wTDxe-36" value="DTO" style="html=1;strokeColor=none;resizeWidth=1;resizeHeight=1;fillColor=none;part=1;connectable=0;allowArrows=0;deletable=0;whiteSpace=wrap;" parent="_zV6KzTDaz2BEm2wTDxe-35" vertex="1">
          <mxGeometry width="130" height="66" relative="1" as="geometry">
            <mxPoint y="20" as="offset" />
          </mxGeometry>
        </mxCell>
        <mxCell id="_zV6KzTDaz2BEm2wTDxe-37" value="Package" style="shape=folder;fontStyle=1;tabWidth=70;tabHeight=20;tabPosition=left;html=1;boundedLbl=1;labelInHeader=1;container=1;collapsible=0;whiteSpace=wrap;" parent="_zV6KzTDaz2BEm2wTDxe-26" vertex="1">
          <mxGeometry x="20" y="340" width="130" height="80" as="geometry" />
        </mxCell>
        <mxCell id="_zV6KzTDaz2BEm2wTDxe-38" value="utils" style="html=1;strokeColor=none;resizeWidth=1;resizeHeight=1;fillColor=none;part=1;connectable=0;allowArrows=0;deletable=0;whiteSpace=wrap;" parent="_zV6KzTDaz2BEm2wTDxe-37" vertex="1">
          <mxGeometry width="130" height="66" relative="1" as="geometry">
            <mxPoint y="20" as="offset" />
          </mxGeometry>
        </mxCell>
        <mxCell id="_zV6KzTDaz2BEm2wTDxe-43" value="" style="html=1;verticalAlign=bottom;labelBackgroundColor=none;endArrow=open;endFill=0;dashed=1;rounded=0;" parent="_zV6KzTDaz2BEm2wTDxe-26" source="_zV6KzTDaz2BEm2wTDxe-29" target="_zV6KzTDaz2BEm2wTDxe-33" edge="1">
          <mxGeometry width="160" relative="1" as="geometry">
            <mxPoint x="428" y="140" as="sourcePoint" />
            <mxPoint x="374" y="200" as="targetPoint" />
          </mxGeometry>
        </mxCell>
        <mxCell id="_zV6KzTDaz2BEm2wTDxe-44" value="" style="html=1;verticalAlign=bottom;labelBackgroundColor=none;endArrow=open;endFill=0;dashed=1;rounded=0;" parent="_zV6KzTDaz2BEm2wTDxe-26" source="_zV6KzTDaz2BEm2wTDxe-29" target="_zV6KzTDaz2BEm2wTDxe-35" edge="1">
          <mxGeometry width="160" relative="1" as="geometry">
            <mxPoint x="235" y="150" as="sourcePoint" />
            <mxPoint x="181" y="210" as="targetPoint" />
          </mxGeometry>
        </mxCell>
        <mxCell id="_zV6KzTDaz2BEm2wTDxe-45" value="" style="html=1;verticalAlign=bottom;labelBackgroundColor=none;endArrow=open;endFill=0;dashed=1;rounded=0;" parent="_zV6KzTDaz2BEm2wTDxe-26" source="_zV6KzTDaz2BEm2wTDxe-33" target="_zV6KzTDaz2BEm2wTDxe-37" edge="1">
          <mxGeometry width="160" relative="1" as="geometry">
            <mxPoint x="252" y="270" as="sourcePoint" />
            <mxPoint x="198" y="330" as="targetPoint" />
          </mxGeometry>
        </mxCell>
        <mxCell id="_zV6KzTDaz2BEm2wTDxe-50" value="Package" style="shape=folder;fontStyle=1;tabWidth=70;tabHeight=20;tabPosition=left;html=1;boundedLbl=1;labelInHeader=1;container=1;collapsible=0;whiteSpace=wrap;" parent="_zV6KzTDaz2BEm2wTDxe-26" vertex="1">
          <mxGeometry x="340" y="340" width="130" height="80" as="geometry" />
        </mxCell>
        <mxCell id="_zV6KzTDaz2BEm2wTDxe-51" value="repo" style="html=1;strokeColor=none;resizeWidth=1;resizeHeight=1;fillColor=none;part=1;connectable=0;allowArrows=0;deletable=0;whiteSpace=wrap;" parent="_zV6KzTDaz2BEm2wTDxe-50" vertex="1">
          <mxGeometry width="130" height="66" relative="1" as="geometry">
            <mxPoint y="20" as="offset" />
          </mxGeometry>
        </mxCell>
        <mxCell id="_zV6KzTDaz2BEm2wTDxe-52" value="" style="html=1;verticalAlign=bottom;labelBackgroundColor=none;endArrow=open;endFill=0;dashed=1;rounded=0;" parent="_zV6KzTDaz2BEm2wTDxe-26" source="_zV6KzTDaz2BEm2wTDxe-33" target="_zV6KzTDaz2BEm2wTDxe-50" edge="1">
          <mxGeometry width="160" relative="1" as="geometry">
            <mxPoint x="641" y="240" as="sourcePoint" />
            <mxPoint x="556" y="310" as="targetPoint" />
          </mxGeometry>
        </mxCell>
        <mxCell id="_zV6KzTDaz2BEm2wTDxe-53" value="Package" style="shape=folder;fontStyle=1;tabWidth=70;tabHeight=20;tabPosition=left;html=1;boundedLbl=1;labelInHeader=1;container=1;collapsible=0;whiteSpace=wrap;" parent="_zV6KzTDaz2BEm2wTDxe-26" vertex="1">
          <mxGeometry x="520" y="340" width="130" height="80" as="geometry" />
        </mxCell>
        <mxCell id="_zV6KzTDaz2BEm2wTDxe-54" value="entity" style="html=1;strokeColor=none;resizeWidth=1;resizeHeight=1;fillColor=none;part=1;connectable=0;allowArrows=0;deletable=0;whiteSpace=wrap;" parent="_zV6KzTDaz2BEm2wTDxe-53" vertex="1">
          <mxGeometry width="130" height="66" relative="1" as="geometry">
            <mxPoint y="20" as="offset" />
          </mxGeometry>
        </mxCell>
        <mxCell id="_zV6KzTDaz2BEm2wTDxe-55" value="" style="html=1;verticalAlign=bottom;labelBackgroundColor=none;endArrow=open;endFill=0;dashed=1;rounded=0;" parent="_zV6KzTDaz2BEm2wTDxe-26" source="_zV6KzTDaz2BEm2wTDxe-33" target="_zV6KzTDaz2BEm2wTDxe-53" edge="1">
          <mxGeometry width="160" relative="1" as="geometry">
            <mxPoint x="800" y="240" as="sourcePoint" />
            <mxPoint x="715" y="310" as="targetPoint" />
          </mxGeometry>
        </mxCell>
        <mxCell id="_zV6KzTDaz2BEm2wTDxe-56" value="Package" style="shape=folder;fontStyle=1;tabWidth=70;tabHeight=20;tabPosition=left;html=1;boundedLbl=1;labelInHeader=1;container=1;collapsible=0;whiteSpace=wrap;" parent="_zV6KzTDaz2BEm2wTDxe-26" vertex="1">
          <mxGeometry x="40" y="50" width="130" height="80" as="geometry" />
        </mxCell>
        <mxCell id="_zV6KzTDaz2BEm2wTDxe-57" value="sercurity" style="html=1;strokeColor=none;resizeWidth=1;resizeHeight=1;fillColor=none;part=1;connectable=0;allowArrows=0;deletable=0;whiteSpace=wrap;" parent="_zV6KzTDaz2BEm2wTDxe-56" vertex="1">
          <mxGeometry width="130" height="66" relative="1" as="geometry">
            <mxPoint y="20" as="offset" />
          </mxGeometry>
        </mxCell>
        <mxCell id="_zV6KzTDaz2BEm2wTDxe-59" value="Package" style="shape=folder;fontStyle=1;tabWidth=70;tabHeight=20;tabPosition=left;html=1;boundedLbl=1;labelInHeader=1;container=1;collapsible=0;whiteSpace=wrap;" parent="_zV6KzTDaz2BEm2wTDxe-26" vertex="1">
          <mxGeometry x="180" y="340" width="130" height="80" as="geometry" />
        </mxCell>
        <mxCell id="_zV6KzTDaz2BEm2wTDxe-60" value="cloudinary" style="html=1;strokeColor=none;resizeWidth=1;resizeHeight=1;fillColor=none;part=1;connectable=0;allowArrows=0;deletable=0;whiteSpace=wrap;" parent="_zV6KzTDaz2BEm2wTDxe-59" vertex="1">
          <mxGeometry width="130" height="66" relative="1" as="geometry">
            <mxPoint y="20" as="offset" />
          </mxGeometry>
        </mxCell>
        <mxCell id="_zV6KzTDaz2BEm2wTDxe-61" value="" style="html=1;verticalAlign=bottom;labelBackgroundColor=none;endArrow=open;endFill=0;dashed=1;rounded=0;" parent="_zV6KzTDaz2BEm2wTDxe-26" source="_zV6KzTDaz2BEm2wTDxe-33" target="_zV6KzTDaz2BEm2wTDxe-59" edge="1">
          <mxGeometry width="160" relative="1" as="geometry">
            <mxPoint x="302" y="250" as="sourcePoint" />
            <mxPoint x="368" y="350" as="targetPoint" />
          </mxGeometry>
        </mxCell>
        <mxCell id="_zV6KzTDaz2BEm2wTDxe-62" value="" style="html=1;verticalAlign=bottom;labelBackgroundColor=none;endArrow=open;endFill=0;dashed=1;rounded=0;" parent="_zV6KzTDaz2BEm2wTDxe-26" source="_zV6KzTDaz2BEm2wTDxe-50" target="_zV6KzTDaz2BEm2wTDxe-53" edge="1">
          <mxGeometry width="160" relative="1" as="geometry">
            <mxPoint x="302" y="250" as="sourcePoint" />
            <mxPoint x="368" y="350" as="targetPoint" />
          </mxGeometry>
        </mxCell>
      </root>
    </mxGraphModel>
  </diagram>
</mxfile>
